<svg width="46" height="46" viewBox="0 0 46 46" fill="none" xmlns="http://www.w3.org/2000/svg">
<path d="M10.5 35.5H15.5V23H10.5V35.5ZM30.5 35.5H35.5V10.5H30.5V35.5ZM20.5 35.5H25.5V28H20.5V35.5ZM20.5 23H25.5V18H20.5V23ZM5.5 45.5C4.125 45.5 2.94792 45.0104 1.96875 44.0312C0.989583 43.0521 0.5 41.875 0.5 40.5V5.5C0.5 4.125 0.989583 2.94792 1.96875 1.96875C2.94792 0.989583 4.125 0.5 5.5 0.5H40.5C41.875 0.5 43.0521 0.989583 44.0312 1.96875C45.0104 2.94792 45.5 4.125 45.5 5.5V40.5C45.5 41.875 45.0104 43.0521 44.0312 44.0312C43.0521 45.0104 41.875 45.5 40.5 45.5H5.5ZM5.5 40.5H40.5V5.5H5.5V40.5Z" fill="#6DCFF6"/>
</svg>
