<svg width="40" height="53" viewBox="0 0 40 53" fill="none" xmlns="http://www.w3.org/2000/svg">
<path d="M20 52.4999L2 38.9999C1.375 38.5415 0.885417 37.9582 0.53125 37.2499C0.177083 36.5415 0 35.7915 0 34.9999V4.99988C0 3.62488 0.489583 2.44779 1.46875 1.46863C2.44792 0.489461 3.625 -0.00012207 5 -0.00012207H35C36.375 -0.00012207 37.5521 0.489461 38.5312 1.46863C39.5104 2.44779 40 3.62488 40 4.99988V34.9999C40 35.7915 39.8229 36.5415 39.4688 37.2499C39.1146 37.9582 38.625 38.5415 38 38.9999L20 52.4999ZM20 46.2499L35 34.9999V4.99988H5V34.9999L20 46.2499ZM17.375 32.4999L31.5 18.3749L28 14.7499L17.375 25.3749L12.125 20.1249L8.5 23.6249L17.375 32.4999Z" fill="#6DCFF6"/>
</svg>
