<svg width="50" height="56" viewBox="0 0 50 56" fill="none" xmlns="http://www.w3.org/2000/svg">
<path d="M25 14.4665C25.7083 14.4665 26.3021 14.2025 26.7813 13.6744C27.2604 13.1462 27.5 12.4918 27.5 11.7111C27.5 10.9304 27.2604 10.276 26.7813 9.74789C26.3021 9.21977 25.7083 8.95571 25 8.95571C24.2917 8.95571 23.6979 9.21977 23.2188 9.74789C22.7396 10.276 22.5 10.9304 22.5 11.7111C22.5 12.4918 22.7396 13.1462 23.2188 13.6744C23.6979 14.2025 24.2917 14.4665 25 14.4665ZM22.5 36.5099H27.5V19.9774H22.5V36.5099ZM0 55.7978V6.20029C0 4.68481 0.489583 3.38747 1.46875 2.30826C2.44792 1.22906 3.625 0.689453 5 0.689453H45C46.375 0.689453 47.5521 1.22906 48.5312 2.30826C49.5104 3.38747 50 4.68481 50 6.20029V39.2653C50 40.7808 49.5104 42.0781 48.5312 43.1573C47.5521 44.2365 46.375 44.7761 45 44.7761H10L0 55.7978ZM7.875 39.2653H45V6.20029H5V42.3651L7.875 39.2653Z" fill="#6DCFF6"/>
</svg>
