<svg width="56" height="38" viewBox="0 0 56 38" fill="none" xmlns="http://www.w3.org/2000/svg">
<path d="M28.25 30C31.375 30 34.0312 28.9062 36.2188 26.7188C38.4062 24.5312 39.5 21.875 39.5 18.75C39.5 15.625 38.4062 12.9688 36.2188 10.7812C34.0312 8.59375 31.375 7.5 28.25 7.5C25.125 7.5 22.4688 8.59375 20.2812 10.7812C18.0938 12.9688 17 15.625 17 18.75C17 21.875 18.0938 24.5312 20.2812 26.7188C22.4688 28.9062 25.125 30 28.25 30ZM28.25 25.5C26.375 25.5 24.7813 24.8438 23.4688 23.5312C22.1563 22.2188 21.5 20.625 21.5 18.75C21.5 16.875 22.1563 15.2812 23.4688 13.9688C24.7813 12.6562 26.375 12 28.25 12C30.125 12 31.7188 12.6562 33.0312 13.9688C34.3438 15.2812 35 16.875 35 18.75C35 20.625 34.3438 22.2188 33.0312 23.5312C31.7188 24.8438 30.125 25.5 28.25 25.5ZM28.25 37.5C22.1667 37.5 16.625 35.8021 11.625 32.4062C6.625 29.0104 3 24.4583 0.75 18.75C3 13.0417 6.625 8.48958 11.625 5.09375C16.625 1.69792 22.1667 0 28.25 0C34.3333 0 39.875 1.69792 44.875 5.09375C49.875 8.48958 53.5 13.0417 55.75 18.75C53.5 24.4583 49.875 29.0104 44.875 32.4062C39.875 35.8021 34.3333 37.5 28.25 37.5ZM28.25 32.5C32.9583 32.5 37.2812 31.2604 41.2188 28.7812C45.1562 26.3021 48.1667 22.9583 50.25 18.75C48.1667 14.5417 45.1562 11.1979 41.2188 8.71875C37.2812 6.23958 32.9583 5 28.25 5C23.5417 5 19.2188 6.23958 15.2812 8.71875C11.3438 11.1979 8.33333 14.5417 6.25 18.75C8.33333 22.9583 11.3438 26.3021 15.2812 28.7812C19.2188 31.2604 23.5417 32.5 28.25 32.5Z" fill="#6DCFF6"/>
</svg>
