<svg width="136" height="153" viewBox="0 0 136 153" fill="none" xmlns="http://www.w3.org/2000/svg">
<path d="M15.5 152.417C11.375 152.417 7.84375 150.76 4.90625 147.446C1.96875 144.132 0.5 140.148 0.5 135.495V17.0377C0.5 12.384 1.96875 8.40018 4.90625 5.0862C7.84375 1.77222 11.375 0.115234 15.5 0.115234H120.5C124.625 0.115234 128.156 1.77222 131.094 5.0862C134.031 8.40018 135.5 12.384 135.5 17.0377V135.495C135.5 140.148 134.031 144.132 131.094 147.446C128.156 150.76 124.625 152.417 120.5 152.417H15.5ZM15.5 17.0377V135.495H120.5V17.0377H105.5V76.2662L86.75 63.5744L68 76.2662V17.0377H15.5Z" fill="white"/>
</svg>
