<svg width="56" height="52" viewBox="0 0 56 52" fill="none" xmlns="http://www.w3.org/2000/svg">
<path d="M23.25 52V47H55.75V52H23.25ZM25.75 44.5C25.75 41.125 26.8125 38.1771 28.9375 35.6562C31.0625 33.1354 33.75 31.5833 37 31V29.4375C37 28.7292 37.2396 28.1354 37.7188 27.6562C38.1979 27.1771 38.7917 26.9375 39.5 26.9375C40.2083 26.9375 40.8021 27.1771 41.2812 27.6562C41.7604 28.1354 42 28.7292 42 29.4375V31C45.2083 31.5833 47.8854 33.1354 50.0312 35.6562C52.1771 38.1771 53.25 41.125 53.25 44.5H25.75ZM32.3125 39.4375H46.5625C45.7708 38.3125 44.7604 37.4062 43.5313 36.7188C42.3021 36.0312 40.9583 35.6875 39.5 35.6875C38 35.6875 36.625 36.0312 35.375 36.7188C34.125 37.4062 33.1042 38.3125 32.3125 39.4375ZM0.75 29.5V2H15.75V5.625L33.25 0.75L53.25 7V9.5C53.25 11.5833 52.5208 13.3542 51.0625 14.8125C49.6042 16.2708 47.8333 17 45.75 17H40.75V18.5C40.75 19.5417 40.4479 20.4896 39.8438 21.3438C39.2396 22.1979 38.4583 22.8125 37.5 23.1875L20.625 29.5H0.75ZM5.75 24.5H10.75V7H5.75V24.5ZM15.75 24.5H19.75L34.25 19.1875C34.7083 19.0208 35.0729 18.7396 35.3438 18.3438C35.6146 17.9479 35.75 17.5 35.75 17H31.3125L24 19.375L22.5 14.625L30.3125 12H45.75C46.125 12 46.5938 11.8646 47.1562 11.5938C47.7188 11.3229 48 11 48 10.625L33.125 6L15.75 10.75V24.5Z" fill="#6DCFF6"/>
</svg>
