<svg width="56" height="47" viewBox="0 0 56 47" fill="none" xmlns="http://www.w3.org/2000/svg">
<path d="M17 0.5C19.1667 0.5 21.2292 0.958333 23.1875 1.875C25.1458 2.79167 26.8333 4.08333 28.25 5.75C29.6667 4.08333 31.3542 2.79167 33.3125 1.875C35.2708 0.958333 37.3333 0.5 39.5 0.5C43.4167 0.5 46.6875 1.8125 49.3125 4.4375C51.9375 7.0625 53.25 10.3333 53.25 14.25C53.25 14.4583 53.2396 14.6667 53.2188 14.875C53.1979 15.0833 53.1875 15.2917 53.1875 15.5H48.1875C48.2292 15.2917 48.25 15.0833 48.25 14.875V14.25C48.25 11.75 47.4167 9.66667 45.75 8C44.0833 6.33333 42 5.5 39.5 5.5C37.5417 5.5 35.7292 6.05208 34.0625 7.15625C32.3958 8.26042 31.25 9.66667 30.625 11.375H25.875C25.25 9.66667 24.1042 8.26042 22.4375 7.15625C20.7708 6.05208 18.9583 5.5 17 5.5C14.5 5.5 12.4167 6.33333 10.75 8C9.08333 9.66667 8.25 11.75 8.25 14.25V14.875C8.25 15.0833 8.27083 15.2917 8.3125 15.5H3.3125C3.3125 15.2917 3.30208 15.0833 3.28125 14.875C3.26042 14.6667 3.25 14.4583 3.25 14.25C3.25 10.3333 4.5625 7.0625 7.1875 4.4375C9.8125 1.8125 13.0833 0.5 17 0.5ZM11.5 30.5H18.5C19.8333 31.7917 21.2917 33.1875 22.875 34.6875C24.4583 36.1875 26.25 37.8333 28.25 39.625C30.25 37.8333 32.0417 36.1875 33.625 34.6875C35.2083 33.1875 36.6667 31.7917 38 30.5H45.0625C43.4792 32.25 41.6042 34.1458 39.4375 36.1875C37.2708 38.2292 34.75 40.5417 31.875 43.125L28.25 46.375L24.625 43.125C21.75 40.5417 19.2396 38.2292 17.0938 36.1875C14.9479 34.1458 13.0833 32.25 11.5 30.5ZM25.875 33C26.4167 33 26.8854 32.8438 27.2812 32.5312C27.6771 32.2188 27.9583 31.8125 28.125 31.3125L31.5 21.125L33.6875 24.375C33.8958 24.7083 34.1875 24.9792 34.5625 25.1875C34.9375 25.3958 35.3333 25.5 35.75 25.5H55.75V20.5H37.1875L32.875 14.125C32.625 13.75 32.3021 13.4688 31.9063 13.2812C31.5104 13.0938 31.0833 13 30.625 13C30.0833 13 29.6146 13.1562 29.2188 13.4688C28.8229 13.7812 28.5417 14.1875 28.375 14.6875L25 24.8125L22.875 21.625C22.6667 21.2917 22.375 21.0208 22 20.8125C21.625 20.6042 21.2292 20.5 20.8125 20.5H0.75V25.5H19.3125L23.625 31.875C23.875 32.25 24.1979 32.5312 24.5938 32.7188C24.9896 32.9062 25.4167 33 25.875 33Z" fill="#6DCFF6"/>
</svg>
