<svg width="50" height="40" viewBox="0 0 50 40" fill="none" xmlns="http://www.w3.org/2000/svg">
<path d="M0 40.0001V15.0001C0 13.6251 0.489583 12.448 1.46875 11.4689C2.44792 10.4897 3.625 10.0001 5 10.0001H12.5V5.00012C12.5 3.62512 12.9896 2.44804 13.9688 1.46887C14.9479 0.489705 16.125 0.00012207 17.5 0.00012207H32.5C33.875 0.00012207 35.0521 0.489705 36.0312 1.46887C37.0104 2.44804 37.5 3.62512 37.5 5.00012V10.0001H45C46.375 10.0001 47.5521 10.4897 48.5312 11.4689C49.5104 12.448 50 13.6251 50 15.0001V40.0001H0ZM15 27.5001V30.0001H10V27.5001H5V35.0001H45V27.5001H40V30.0001H35V27.5001H15ZM5 15.0001V22.5001H10V20.0001H15V22.5001H35V20.0001H40V22.5001H45V15.0001H5ZM17.5 10.0001H32.5V5.00012H17.5V10.0001Z" fill="#6DCFF6"/>
</svg>
