<svg width="46" height="46" viewBox="0 0 46 46" fill="none" xmlns="http://www.w3.org/2000/svg">
<path d="M35.875 44.75L20.75 29.5C19.9167 29.8333 19.0729 30.0833 18.2188 30.25C17.3646 30.4167 16.4583 30.5 15.5 30.5C11.3333 30.5 7.79167 29.0417 4.875 26.125C1.95833 23.2083 0.5 19.6667 0.5 15.5C0.5 14 0.708333 12.5729 1.125 11.2188C1.54167 9.86458 2.125 8.58333 2.875 7.375L12 16.5L16.5 12L7.375 2.875C8.58333 2.125 9.86458 1.54167 11.2188 1.125C12.5729 0.708333 14 0.5 15.5 0.5C19.6667 0.5 23.2083 1.95833 26.125 4.875C29.0417 7.79167 30.5 11.3333 30.5 15.5C30.5 16.4583 30.4167 17.3646 30.25 18.2188C30.0833 19.0729 29.8333 19.9167 29.5 20.75L44.75 35.875C45.25 36.375 45.5 36.9792 45.5 37.6875C45.5 38.3958 45.25 39 44.75 39.5L39.5 44.75C39 45.25 38.3958 45.5 37.6875 45.5C36.9792 45.5 36.375 45.25 35.875 44.75ZM37.6875 39.4375L39.375 37.75L23.375 21.75C24.125 20.9167 24.6667 19.9479 25 18.8438C25.3333 17.7396 25.5 16.625 25.5 15.5C25.5 13 24.6979 10.8229 23.0938 8.96875C21.4896 7.11458 19.5 6 17.125 5.625L21.75 10.25C22.25 10.75 22.5 11.3333 22.5 12C22.5 12.6667 22.25 13.25 21.75 13.75L13.75 21.75C13.25 22.25 12.6667 22.5 12 22.5C11.3333 22.5 10.75 22.25 10.25 21.75L5.625 17.125C6 19.5 7.11458 21.4896 8.96875 23.0938C10.8229 24.6979 13 25.5 15.5 25.5C16.5833 25.5 17.6667 25.3333 18.75 25C19.8333 24.6667 20.8125 24.1458 21.6875 23.4375L37.6875 39.4375Z" fill="#6DCFF6"/>
</svg>
