<svg width="36" height="30" viewBox="0 0 36 30" fill="none" xmlns="http://www.w3.org/2000/svg">
<path d="M4.52759 29.5C3.3137 29.5 2.28338 29.0766 1.43663 28.2298C0.589879 27.3831 0.166504 26.3528 0.166504 25.1389V4.86104C0.166504 3.63952 0.589879 2.60265 1.43663 1.75046C2.28338 0.898266 3.3137 0.472168 4.52759 0.472168H31.4721C32.6936 0.472168 33.7305 0.898266 34.5827 1.75046C35.4349 2.60265 35.861 3.63952 35.861 4.86104V25.1389C35.861 26.3528 35.4349 27.3831 34.5827 28.2298C33.7305 29.0766 32.6936 29.5 31.4721 29.5H4.52759ZM17.9998 17.5416L4.52759 8.56938V25.1389H31.4721V8.56938L17.9998 17.5416ZM17.9998 13.6944L31.361 4.86104H4.6665L17.9998 13.6944ZM4.52759 8.56938V4.86104V25.1389V8.56938Z" fill="white"/>
</svg>
