<svg width="54" height="56" viewBox="0 0 54 56" fill="none" xmlns="http://www.w3.org/2000/svg">
<path d="M24.5002 25.5001H29.5002V8.00012C29.5002 7.29179 29.2606 6.69804 28.7815 6.21887C28.3023 5.73971 27.7086 5.50012 27.0002 5.50012C26.2919 5.50012 25.6981 5.73971 25.219 6.21887C24.7398 6.69804 24.5002 7.29179 24.5002 8.00012V25.5001ZM9.50023 35.5001H44.5002V30.5001H9.50023V35.5001ZM5.87523 50.5001H12.0002V45.5001C12.0002 44.7918 12.2398 44.198 12.719 43.7189C13.1981 43.2397 13.7919 43.0001 14.5002 43.0001C15.2086 43.0001 15.8023 43.2397 16.2815 43.7189C16.7606 44.198 17.0002 44.7918 17.0002 45.5001V50.5001H24.5002V45.5001C24.5002 44.7918 24.7398 44.198 25.219 43.7189C25.6981 43.2397 26.2919 43.0001 27.0002 43.0001C27.7086 43.0001 28.3023 43.2397 28.7815 43.7189C29.2606 44.198 29.5002 44.7918 29.5002 45.5001V50.5001H37.0002V45.5001C37.0002 44.7918 37.2398 44.198 37.719 43.7189C38.1981 43.2397 38.7919 43.0001 39.5002 43.0001C40.2086 43.0001 40.8023 43.2397 41.2815 43.7189C41.7606 44.198 42.0002 44.7918 42.0002 45.5001V50.5001H48.1252L45.6252 40.5001H8.37523L5.87523 50.5001ZM48.1252 55.5001H5.87523C4.25023 55.5001 2.93773 54.8543 1.93773 53.5626C0.93773 52.271 0.646063 50.8335 1.06273 49.2501L4.50023 35.5001V30.5001C4.50023 29.1251 4.98981 27.948 5.96898 26.9689C6.94815 25.9897 8.12523 25.5001 9.50023 25.5001H19.5002V8.00012C19.5002 5.91679 20.2294 4.14596 21.6877 2.68762C23.1461 1.22929 24.9169 0.500122 27.0002 0.500122C29.0836 0.500122 30.8544 1.22929 32.3127 2.68762C33.7711 4.14596 34.5002 5.91679 34.5002 8.00012V25.5001H44.5002C45.8752 25.5001 47.0523 25.9897 48.0315 26.9689C49.0106 27.948 49.5002 29.1251 49.5002 30.5001V35.5001L52.9377 49.2501C53.4794 50.8335 53.2398 52.271 52.219 53.5626C51.1981 54.8543 49.8336 55.5001 48.1252 55.5001Z" fill="#6DCFF6"/>
</svg>
