<?xml version="1.0" standalone="no"?>
<!DOCTYPE svg PUBLIC "-//W3C//DTD SVG 20010904//EN"
 "http://www.w3.org/TR/2001/REC-SVG-20010904/DTD/svg10.dtd">
<svg version="1.0" xmlns="http://www.w3.org/2000/svg"
 width="700.000000pt" height="700.000000pt" viewBox="0 0 700.000000 700.000000"
 preserveAspectRatio="xMidYMid meet">
<metadata>
Created by potrace 1.14, written by Peter Selinger 2001-2017
</metadata>
<g transform="translate(0.000000,700.000000) scale(0.100000,-0.100000)"
fill="#000000" stroke="none">
<path d="M3447 5484 c-1 -2 -44 -5 -94 -8 -89 -6 -147 -12 -190 -21 -12 -3
-40 -7 -64 -10 -23 -3 -45 -8 -49 -10 -4 -2 -22 -7 -41 -10 -43 -7 -160 -41
-219 -63 -25 -9 -47 -17 -50 -18 -6 -1 -46 -17 -108 -44 -77 -34 -204 -101
-249 -132 -23 -15 -46 -28 -52 -28 -6 0 -11 -4 -11 -8 0 -5 -11 -14 -24 -20
-14 -6 -33 -18 -43 -26 -10 -8 -56 -45 -103 -83 -86 -69 -226 -206 -284 -277
-17 -22 -38 -47 -47 -56 -9 -9 -31 -39 -49 -66 -19 -27 -37 -50 -42 -52 -4 -2
-8 -8 -8 -13 0 -4 -19 -39 -43 -76 -24 -37 -54 -90 -68 -118 -13 -27 -26 -52
-30 -55 -5 -5 -29 -56 -48 -105 -5 -11 -17 -40 -27 -65 -11 -24 -19 -47 -19
-50 -1 -6 -24 -78 -32 -100 -3 -8 -7 -19 -8 -25 -2 -5 -12 -46 -23 -90 -11
-44 -23 -96 -26 -115 -3 -19 -8 -46 -11 -60 -9 -47 -16 -125 -21 -230 -3 -58
-5 -109 -6 -115 -1 -18 13 -209 17 -235 2 -14 6 -45 9 -70 7 -46 8 -53 20
-105 3 -16 11 -52 17 -80 29 -134 114 -357 181 -479 21 -39 42 -79 45 -88 3
-10 9 -18 14 -18 5 0 9 -5 9 -10 0 -6 24 -45 53 -87 28 -41 57 -84 63 -95 7
-11 14 -16 17 -11 6 9 67 246 71 278 2 11 6 27 9 35 23 65 25 103 6 139 -10
20 -19 41 -19 48 0 7 -4 13 -10 13 -5 0 -10 6 -10 14 0 8 -7 27 -15 43 -41 79
-98 250 -112 338 -2 17 -8 46 -13 65 -29 119 -32 471 -5 615 27 142 85 345
107 373 6 6 8 12 5 12 -10 0 93 201 139 272 24 38 44 73 44 78 0 6 4 10 10 10
5 0 15 11 22 24 38 71 281 321 370 381 9 6 49 33 89 60 41 28 85 56 99 63 14
7 50 26 80 42 111 61 313 135 425 156 11 2 31 6 45 9 108 23 175 29 350 29
244 0 403 -26 613 -100 67 -24 248 -109 291 -137 11 -6 45 -27 75 -46 31 -19
61 -40 67 -45 6 -6 22 -18 34 -26 71 -48 211 -176 275 -251 95 -112 215 -284
215 -308 0 -5 -29 -9 -64 -10 l-64 0 -63 87 c-80 109 -300 332 -328 332 -5 0
-11 4 -13 9 -5 14 -168 121 -184 121 -8 0 -14 4 -14 9 0 15 -268 131 -338 146
-9 2 -55 13 -102 24 -93 23 -191 35 -287 36 -35 0 -63 4 -63 8 0 5 -4 6 -8 3
-5 -3 -35 -6 -68 -6 -51 -2 -217 -22 -279 -34 -110 -22 -333 -99 -347 -120 -4
-6 -8 -8 -8 -3 0 13 -259 -137 -280 -162 -3 -3 -27 -24 -55 -46 -27 -21 -62
-52 -78 -67 -15 -15 -29 -28 -32 -28 -7 0 -84 -85 -80 -89 2 -2 28 20 57 49
29 29 67 61 83 71 17 11 26 19 21 19 -5 0 8 11 28 25 20 14 39 25 41 25 3 0
16 9 29 21 13 12 28 21 33 22 4 0 16 8 25 17 15 14 206 114 218 115 3 0 24 7
45 17 96 39 250 78 380 94 110 15 367 8 455 -11 14 -3 39 -7 55 -10 17 -3 48
-10 70 -15 22 -6 56 -15 75 -20 87 -22 258 -101 375 -173 44 -27 82 -52 85
-56 3 -3 21 -17 40 -31 85 -59 212 -187 292 -295 21 -28 42 -55 48 -62 5 -7
10 -14 10 -16 0 -2 -138 -4 -307 -4 -308 -1 -357 -3 -407 -23 -14 -5 -38 -15
-53 -21 -16 -6 -30 -10 -32 -9 -2 1 -7 -2 -10 -7 -3 -4 -23 -21 -43 -36 -71
-53 -153 -160 -163 -215 -2 -9 -4 -17 -5 -17 -3 0 -10 -29 -18 -76 -26 -145
24 -295 138 -409 106 -107 198 -138 407 -141 94 -1 120 -5 161 -24 52 -24 94
-62 118 -108 19 -36 35 -129 24 -141 -5 -5 -6 -14 -4 -21 8 -19 -34 -96 -70
-129 -69 -64 -96 -69 -358 -69 l-238 -1 4 -30 c2 -17 8 -49 14 -71 6 -22 13
-51 16 -65 3 -14 7 -34 10 -45 3 -11 9 -36 14 -56 5 -20 12 -41 15 -46 6 -9
385 -9 452 0 70 11 199 66 249 108 114 95 184 210 213 349 11 58 6 182 -12
246 -9 32 -17 64 -18 69 -15 65 -186 265 -226 265 -5 0 -11 4 -13 8 -4 10 -94
52 -111 52 -8 0 -17 3 -21 7 -10 10 -30 13 -131 19 -49 3 -95 7 -102 9 -7 2
-15 0 -18 -4 -3 -5 -22 -5 -42 0 -21 4 -39 8 -40 9 -2 0 -9 0 -15 0 -21 0 -74
53 -86 85 -16 41 -22 82 -14 90 4 4 7 10 8 13 5 39 49 89 90 102 23 8 252 11
718 12 l684 0 -14 46 c-8 26 -17 58 -20 72 -3 13 -10 30 -16 37 -6 7 -7 13 -3
13 4 0 3 6 -3 13 -6 6 -11 15 -12 19 -6 36 -93 219 -152 323 -29 49 -103 160
-135 200 -13 17 -36 45 -51 64 -29 38 -255 266 -288 291 -11 9 -46 36 -79 60
-33 25 -61 48 -63 53 -2 4 -7 7 -12 7 -4 0 -39 20 -77 45 -75 50 -322 175
-345 175 -8 0 -18 4 -24 9 -23 20 -307 98 -424 116 -83 12 -95 14 -174 20 -44
3 -83 8 -88 11 -4 3 -8 1 -8 -5 0 -6 -6 -8 -12 -6 -15 6 -97 13 -101 9z"/>
<path d="M2259 4403 c-13 -16 -12 -17 4 -4 16 13 21 21 13 21 -2 0 -10 -8 -17
-17z"/>
<path d="M2495 4197 c-31 -25 -74 -87 -61 -87 3 0 -4 -29 -14 -65 -10 -36 -19
-68 -19 -70 -1 -3 -1 -6 -2 -7 0 -2 -2 -14 -5 -27 -7 -39 -45 -195 -51 -211
-3 -8 -7 -22 -8 -30 -1 -8 -7 -33 -13 -55 -6 -22 -14 -54 -17 -72 -3 -18 -9
-43 -15 -57 -5 -15 -7 -26 -5 -26 2 0 0 -11 -5 -25 -5 -14 -12 -36 -14 -48 -2
-12 -9 -42 -16 -67 -7 -25 -14 -56 -16 -68 -3 -13 -12 -49 -20 -80 -8 -32 -18
-70 -20 -87 -3 -16 -8 -37 -11 -45 -3 -8 -7 -22 -9 -30 -3 -14 -28 -117 -39
-160 -6 -25 -26 -114 -30 -133 -2 -10 -7 -27 -10 -37 -3 -10 -8 -28 -10 -39
-3 -12 -7 -29 -9 -38 -31 -125 -88 -361 -91 -373 -2 -8 -8 -33 -13 -55 -6 -22
-13 -51 -16 -65 -3 -14 -12 -49 -20 -77 -8 -29 -13 -53 -11 -53 2 0 -2 -18
-10 -40 l-14 -41 83 -82 c99 -98 125 -122 191 -172 28 -20 52 -40 55 -44 12
-16 203 -133 290 -177 96 -50 143 -71 215 -97 22 -8 49 -18 60 -23 11 -4 22
-8 25 -9 3 0 37 -10 75 -22 39 -12 81 -24 95 -27 139 -28 183 -35 235 -41 33
-4 76 -8 95 -11 50 -6 309 -6 350 1 19 3 58 7 85 10 28 2 60 6 72 9 38 8 108
18 113 15 3 -1 14 3 26 9 11 6 32 13 45 15 65 12 152 40 284 91 26 10 218 105
294 145 14 8 28 18 29 23 2 4 10 8 18 8 8 0 14 5 14 10 0 6 7 10 15 10 8 0 15
5 15 10 0 6 5 10 10 10 11 0 160 112 206 155 15 14 31 25 35 25 5 0 9 7 9 15
0 8 4 15 8 15 8 0 109 100 153 150 57 67 149 189 149 199 0 6 4 11 9 11 5 0
14 14 21 30 7 17 16 30 21 30 5 0 11 11 15 25 3 14 10 25 14 25 4 0 13 12 19
28 5 15 23 50 39 77 53 93 151 349 166 432 3 13 7 31 10 41 3 9 7 28 10 42 3
14 7 35 10 46 41 188 51 497 21 694 -3 19 -8 53 -11 74 -13 89 -3 84 -179 84
-85 -1 -157 -4 -160 -7 -2 -4 1 -27 6 -52 6 -24 12 -55 14 -69 3 -14 6 -35 9
-48 8 -38 19 -172 19 -242 1 -84 -12 -260 -19 -271 -3 -5 -7 -28 -9 -52 -2
-23 -6 -51 -9 -62 -17 -80 -75 -275 -86 -290 -4 -5 -11 -21 -15 -35 -10 -33
-78 -170 -123 -245 -99 -167 -292 -384 -433 -488 -35 -27 -71 -54 -80 -61 -60
-49 -358 -206 -391 -206 -8 0 -18 -4 -23 -8 -11 -10 -138 -50 -182 -58 -14 -3
-30 -7 -34 -9 -4 -3 -24 -7 -44 -11 -21 -3 -47 -8 -59 -10 -23 -5 -99 -14
-161 -19 -99 -9 -304 -4 -380 9 -16 3 -48 8 -70 12 -22 3 -76 15 -120 26 -44
11 -87 21 -95 23 -44 9 -241 91 -305 127 -27 16 -62 34 -77 39 -16 6 -28 15
-28 20 0 5 -6 9 -13 9 -7 0 -22 7 -32 15 -11 8 -56 41 -100 74 -44 33 -97 75
-118 94 l-39 33 12 45 c7 24 14 55 17 69 7 41 16 41 63 -2 45 -41 186 -148
194 -148 3 0 25 -13 48 -29 124 -83 434 -199 581 -216 18 -2 52 -7 77 -11 25
-4 106 -7 180 -7 138 -1 205 5 330 28 25 4 52 9 60 10 8 1 22 5 30 7 8 3 56
18 105 34 87 27 185 69 185 79 0 2 -20 -4 -45 -15 -25 -11 -47 -20 -50 -20 -3
0 -10 -2 -17 -5 -58 -18 -90 -26 -133 -35 -27 -5 -61 -12 -74 -14 -92 -20
-376 -27 -476 -12 -133 20 -187 32 -304 71 -207 69 -393 178 -561 330 -90 81
-146 145 -141 159 1 6 4 20 6 31 2 11 6 31 10 45 4 14 8 32 9 40 2 8 8 33 14
55 6 22 13 51 16 65 2 14 18 81 36 150 17 69 33 132 35 140 2 8 21 90 44 181
22 91 42 176 45 190 13 65 31 129 37 129 5 0 32 -96 42 -155 2 -11 7 -27 10
-35 4 -8 9 -26 11 -40 3 -14 9 -41 14 -60 12 -48 12 -48 16 -62 3 -7 21 -83
41 -168 32 -137 45 -193 50 -210 1 -3 5 -21 9 -40 25 -106 141 -166 228 -119
34 18 66 51 77 78 10 23 145 567 157 630 3 14 7 28 10 33 3 5 8 23 10 41 2 18
10 52 18 77 l14 45 7 -30 c4 -16 9 -38 11 -47 3 -9 6 -25 8 -35 2 -10 9 -38
16 -63 7 -25 14 -53 16 -62 2 -10 6 -26 8 -35 2 -10 18 -74 36 -143 17 -69 33
-134 35 -145 2 -11 6 -30 9 -42 3 -13 8 -32 11 -43 3 -11 7 -29 10 -40 3 -11
8 -30 11 -42 3 -13 7 -32 8 -43 5 -41 40 -98 78 -123 37 -24 48 -26 161 -26
116 -1 122 0 120 19 -2 30 -11 73 -28 140 -9 33 -18 69 -20 80 -3 11 -12 49
-21 84 -9 36 -17 72 -19 80 -2 9 -17 72 -35 141 -18 69 -33 132 -35 140 -12
56 -36 161 -44 190 -9 30 -33 129 -47 192 -2 10 -6 28 -10 41 -3 12 -7 33 -10
47 -3 14 -9 39 -15 55 -8 26 -51 198 -64 260 -41 188 -64 242 -117 275 -35 21
-148 29 -148 11 0 -5 -9 -12 -20 -16 -38 -12 -73 -85 -95 -197 -2 -9 -26 -109
-54 -222 -28 -113 -53 -216 -55 -229 -3 -12 -12 -51 -21 -87 -9 -36 -19 -75
-21 -87 -2 -12 -8 -32 -13 -45 -8 -22 -8 -22 -14 -3 -4 11 -8 31 -11 45 -3 14
-21 90 -41 170 -20 79 -37 153 -40 165 -2 11 -4 20 -5 20 -2 0 -4 12 -13 55
-3 14 -8 33 -13 43 -4 10 -8 26 -9 35 -1 18 -7 40 -30 132 -8 30 -19 77 -26
103 -13 52 -54 102 -97 118 -49 19 -119 8 -157 -24z"/>
</g>
</svg>
