<svg width="50" height="48" viewBox="0 0 50 48" fill="none" xmlns="http://www.w3.org/2000/svg">
<path d="M35 22.4999C35.7083 22.4999 36.3021 22.2603 36.7812 21.7811C37.2604 21.302 37.5 20.7082 37.5 19.9999C37.5 19.2915 37.2604 18.6978 36.7812 18.2186C36.3021 17.7395 35.7083 17.4999 35 17.4999C34.2917 17.4999 33.6979 17.7395 33.2188 18.2186C32.7396 18.6978 32.5 19.2915 32.5 19.9999C32.5 20.7082 32.7396 21.302 33.2188 21.7811C33.6979 22.2603 34.2917 22.4999 35 22.4999ZM15 17.4999H27.5V12.4999H15V17.4999ZM6.25 47.4999C4.83333 42.7499 3.4375 38.0103 2.0625 33.2811C0.6875 28.552 0 23.7082 0 18.7499C0 14.9165 1.33333 11.6665 4 8.99988C6.66667 6.33321 9.91667 4.99988 13.75 4.99988H26.25C27.4583 3.41654 28.9271 2.18738 30.6562 1.31238C32.3854 0.437378 34.25 -0.00012207 36.25 -0.00012207C37.2917 -0.00012207 38.1771 0.364461 38.9062 1.09363C39.6354 1.82279 40 2.70821 40 3.74988C40 3.99988 39.9688 4.24988 39.9062 4.49988C39.8438 4.74988 39.7708 4.97904 39.6875 5.18738C39.5208 5.64571 39.3646 6.11446 39.2188 6.59363C39.0729 7.07279 38.9583 7.56238 38.875 8.06238L44.5625 13.7499H50V31.1874L42.9375 33.4999L38.75 47.4999H25V42.4999H20V47.4999H6.25ZM10 42.4999H15V37.4999H30V42.4999H35L38.875 29.6249L45 27.5624V18.7499H42.5L33.75 9.99988C33.75 9.16654 33.8021 8.36446 33.9062 7.59363C34.0104 6.82279 34.1667 6.04154 34.375 5.24988C33.1667 5.58321 32.1042 6.15613 31.1875 6.96863C30.2708 7.78113 29.6042 8.79154 29.1875 9.99988H13.75C11.3333 9.99988 9.27083 10.854 7.5625 12.5624C5.85417 14.2707 5 16.3332 5 18.7499C5 22.8332 5.5625 26.8228 6.6875 30.7186C7.8125 34.6145 8.91667 38.5415 10 42.4999Z" fill="#6DCFF6"/>
</svg>
