<svg width="40" height="50" viewBox="0 0 40 50" fill="none" xmlns="http://www.w3.org/2000/svg">
<path d="M16.25 33.7499H23.75V27.4999H30V19.9999H23.75V13.7499H16.25V19.9999H10V27.4999H16.25V33.7499ZM20 49.9999C14.2083 48.5415 9.42708 45.2186 5.65625 40.0311C1.88542 34.8436 0 29.0832 0 22.7499V7.49988L20 -0.00012207L40 7.49988V22.7499C40 29.0832 38.1146 34.8436 34.3438 40.0311C30.5729 45.2186 25.7917 48.5415 20 49.9999ZM20 44.7499C24.3333 43.3749 27.9167 40.6249 30.75 36.4999C33.5833 32.3749 35 27.7915 35 22.7499V10.9374L20 5.31238L5 10.9374V22.7499C5 27.7915 6.41667 32.3749 9.25 36.4999C12.0833 40.6249 15.6667 43.3749 20 44.7499Z" fill="#6DCFF6"/>
</svg>
